<?xml version="1.0" standalone="no"?>
<!DOCTYPE svg PUBLIC "-//W3C//DTD SVG 1.1//EN" "http://www.w3.org/Graphics/SVG/1.1/DTD/svg11.dtd" >
<svg>
<metadata>
Created by FontForge 20120731 at Thu Aug 29 08:27:35 2019
 By www
(c) 2010-2012 Zdenek Gromnica
</metadata>
<defs>
<font id="ElementalEnd" horiz-adv-x="1800" >
  <font-face 
    font-family="Elemental End"
    font-weight="400"
    font-stretch="normal"
    units-per-em="2048"
    panose-1="2 0 5 0 0 0 0 0 0 0"
    ascent="1638"
    descent="-410"
    x-height="1500"
    cap-height="1500"
    bbox="-164 -300 2400 1950"
    underline-thickness="150"
    underline-position="-142"
    unicode-range="U+0020-2212"
  />
<missing-glyph 
d="M1350 300v900h-900v-900h900zM150 0v1500h1500v-1500h-1500z" />
    <glyph glyph-name=".notdef" 
d="M1350 300v900h-900v-900h900zM150 0v1500h1500v-1500h-1500z" />
    <glyph glyph-name=".null" horiz-adv-x="0" 
 />
    <glyph glyph-name="nonmarkingreturn" horiz-adv-x="500" 
 />
    <glyph glyph-name="space" unicode=" " horiz-adv-x="500" 
 />
    <glyph glyph-name="space" unicode="&#xa0;" horiz-adv-x="500" 
 />
    <glyph glyph-name="exclam" unicode="!" horiz-adv-x="600" 
d="M150 0v300h300v-300h-300zM450 600h-300v900h300v-900z" />
    <glyph glyph-name="quotedbl" unicode="&#x22;" horiz-adv-x="1050" 
d="M150 900v600h300l-1 -600h-299zM600 899v601l300 -1l-1 -600h-299z" />
    <glyph glyph-name="numbersign" unicode="#" 
d="M1050 300h-300v-300h-300v300h-300v300h300v300h-300v300h300v300h300v-300h300v300h300v-300h300v-300h-300v-300h300v-300h-300v-300h-300v300zM750 600h300v300h-300v-300z" />
    <glyph glyph-name="dollar" unicode="$" 
d="M750 600h-100q-500 0 -500 400q0 500 500 500h100v250h300v-250h600v-300h-600v-300h100q500 0 500 -400q0 -500 -500 -500h-100v-250h-300v250h-600v300h600v300zM1050 300h50q250 0 250 150t-250 150h-50v-300zM750 1200h-50q-250 0 -250 -150t250 -150h50v300z" />
    <glyph glyph-name="percent" unicode="%" horiz-adv-x="1700" 
d="M450 0h-400l1200 1500h400zM416 986q149 0 149 149v33q0 151 -149 148l-51 -1q-130 -3 -130 -147v-33q0 -149 149 -149h32zM442 801l-84 -1v1q-308 0 -308 308v84q0 308 308 308h84q308 0 308 -308v-84q0 -304 -308 -308zM1316 186q149 0 149 149v33q0 151 -149 148
l-51 -1q-130 -3 -130 -147v-33q0 -149 149 -149h32zM1342 1l-84 -1v1q-308 0 -308 308v84q0 308 308 308h84q308 0 308 -308v-84q0 -304 -308 -308z" />
    <glyph glyph-name="ampersand" unicode="&#x26;" 
d="M1200 599l-550 1q-200 0 -200 -150t250 -150h500v299zM1500 600v-300h150v-300h-1000q-500 0 -500 450q0 250 150 300q-150 50 -150 300q0 450 500 450h400v-300h-350q-250 0 -250 -150t200 -150l550 -1v151h300v-150h150v-300h-150z" />
    <glyph glyph-name="quotesingle" unicode="'" horiz-adv-x="600" 
d="M150 900v600h300l-1 -600h-299z" />
    <glyph glyph-name="parenleft" unicode="(" horiz-adv-x="900" 
d="M750 0v-300h-100q-500 0 -500 500v1100q0 500 500 500h100v-300h-50q-250 0 -250 -250v-1000q0 -250 250 -250h50z" />
    <glyph glyph-name="parenright" unicode=")" horiz-adv-x="900" 
d="M200 0q250 0 250 250v1000q0 250 -250 250h-50v300h100q500 0 500 -500v-1100q0 -500 -500 -500h-100v300h50z" />
    <glyph glyph-name="asterisk" unicode="*" horiz-adv-x="950" 
d="M474 954l-201 -202l-173 173l201 202l-201 201l173 172l201 -201l203 201l171 -172l-202 -201l202 -202l-172 -173z" />
    <glyph glyph-name="plus" unicode="+" horiz-adv-x="1500" 
d="M600 601h-450v300h450v450h300v-451h451l-1 -299h-450v-451h-300v451z" />
    <glyph glyph-name="comma" unicode="," horiz-adv-x="600" 
d="M150 -300v600h300v-300q0 -300 -300 -300z" />
    <glyph glyph-name="hyphen" unicode="-" horiz-adv-x="1200" 
d="M150 600v300h900v-300h-900z" />
    <glyph glyph-name="hyphen" unicode="&#xad;" horiz-adv-x="1200" 
d="M150 600v300h900v-300h-900z" />
    <glyph glyph-name="period" unicode="." horiz-adv-x="600" 
d="M150 0v300h300v-300h-300z" />
    <glyph glyph-name="slash" unicode="/" horiz-adv-x="750" 
d="M400 0h-350l300 1500h350z" />
    <glyph glyph-name="zero" unicode="0" 
d="M1100 300q250 0 250 250v400q0 250 -250 250h-450q-200 0 -200 -250v-400q0 -250 250 -250h400zM1150 0l-500 -1v1q-500 0 -500 500v500q0 500 500 500h500q500 0 500 -500v-500q0 -499 -500 -500z" />
    <glyph glyph-name="one" unicode="1" horiz-adv-x="600" 
d="M450 0h-300v1500h300v-1500z" />
    <glyph glyph-name="two" unicode="2" 
d="M700 600q-250 0 -250 -150v-150h1200v-300h-1500v500q0 400 500 400h450q250 0 250 150t-250 150h-950v300h1000q500 0 500 -500q0 -400 -500 -400h-450z" />
    <glyph glyph-name="three" unicode="3" 
d="M150 599v300l1000 1q200 0 200 150t-250 150h-950v300h1000q500 0 500 -450q0 -250 -150 -300q150 -50 150 -300q0 -450 -500 -450h-1000v300h950q250 0 250 150t-200 150z" />
    <glyph glyph-name="four" unicode="4" 
d="M1350 1500h300v-1500h-300v600h-1200v900h300v-600h900v600z" />
    <glyph glyph-name="five" unicode="5" 
d="M1150 900q500 0 500 -400q0 -500 -500 -500h-1000v300h950q250 0 250 150t-250 150h-950v900h1500v-300h-1200v-300h700z" />
    <glyph glyph-name="six" unicode="6" 
d="M1101 599h-402q-249 0 -249 -149v-1q0 -150 250 -150h400q250 0 250 149v2q0 149 -249 149zM151 451l-1 -1v550q0 500 500 500h500q500 0 501 -500h-300v50q0 150 -241 150h-419q-240 0 -240 -149v-1l-1 -173q87 22 200 22h501q499 0 499 -447v-4q0 -448 -499 -448h-500
q-500 0 -500 450v1z" />
    <glyph glyph-name="seven" unicode="7" 
d="M150 1200v300h1500v-1500h-300v1200h-1200z" />
    <glyph glyph-name="eight" unicode="8" 
d="M649 600q-200 0 -200 -150t250 -150h401q250 0 250 150t-200 150h-501zM1150 1500q500 0 500 -450q0 -250 -150 -300q150 -50 150 -300q0 -450 -500 -450h-150v-1l-351 1q-499 0 -499 448v5q0 247 149 297q-149 50 -149 297v5q0 448 499 448h501zM1150 900q200 0 200 150
t-250 150h-401q-250 0 -250 -150t200 -150h501z" />
    <glyph glyph-name="nine" unicode="9" 
d="M700 901h402q249 0 249 149v1q0 150 -250 150h-400q-250 0 -250 -149v-2q0 -149 249 -149zM1650 1049l1 1v-550q0 -500 -500 -500h-500q-500 0 -501 500h300v-50q0 -150 241 -150h419q240 0 240 149v1l1 173q-87 -22 -200 -22h-501q-499 0 -499 447v4q0 448 499 448h500
q500 0 500 -450v-1z" />
    <glyph glyph-name="colon" unicode=":" horiz-adv-x="600" 
d="M150 0v300h300v-300h-300zM150 900h300v-300h-300v300z" />
    <glyph glyph-name="semicolon" unicode=";" horiz-adv-x="600" 
d="M150 -300v600h300v-300q0 -300 -300 -300zM150 900h300v-300h-300v300z" />
    <glyph glyph-name="semicolon" unicode="&#x37e;" horiz-adv-x="600" 
d="M150 -300v600h300v-300q0 -300 -300 -300zM150 900h300v-300h-300v300z" />
    <glyph glyph-name="less" unicode="&#x3c;" horiz-adv-x="1500" 
d="M1350 950l-800 -200l800 -200v-350l-1200 400v300l1200 400v-350z" />
    <glyph glyph-name="equal" unicode="=" horiz-adv-x="1500" 
d="M150 300v300l1201 -1l-1 -299h-1200zM150 1200h1201l-1 -300h-1200v300z" />
    <glyph glyph-name="greater" unicode="&#x3e;" horiz-adv-x="1500" 
d="M150 1300l1200 -400v-300l-1200 -400v350l800 200l-800 200v350z" />
    <glyph glyph-name="question" unicode="?" 
d="M650 600v300h450q250 0 250 150t-250 150h-950v300h1000q500 0 500 -500q0 -400 -500 -400h-500zM650 0v300h300v-300h-300z" />
    <glyph glyph-name="at" unicode="@" 
d="M1150 800q200 0 200 150q0 250 -250 250h-450q-200 0 -200 -250v-400q0 -250 250 -250h400q224 0 247 200h303q0 -499 -500 -500l-500 -1v1q-500 0 -500 500v500q0 500 500 500h500q500 0 500 -500q0 -450 -300 -450h-400q-300 0 -300 225q0 175 150 175t150 -150h200z
" />
    <glyph glyph-name="A" unicode="A" horiz-adv-x="1700" 
d="M1339 0l-488 1123l-487 -1123h-327l651 1500h326l651 -1500h-326z" />
    <glyph glyph-name="B" unicode="B" 
d="M150 900h1000q200 0 200 150t-250 150h-950v300h1000q500 0 500 -450q0 -250 -150 -300q150 -50 150 -300q0 -450 -500 -450h-1000v300h950q250 0 250 150t-200 150h-1000v300z" />
    <glyph glyph-name="C" unicode="C" 
d="M1650 300v-300h-1000q-500 0 -500 500v500q0 500 500 500h1000v-300h-959q-241 0 -241 -240v-419q0 -241 242 -241h958z" />
    <glyph glyph-name="D" unicode="D" 
d="M150 1200v300h1000q500 0 500 -500v-500q0 -500 -500 -500h-1000v300h958q240 0 240 237v427q0 236 -239 236h-959z" />
    <glyph glyph-name="E" unicode="E" 
d="M150 0v300h1500v-300h-1500zM150 900h1500v-300h-1500v300zM150 1500h1500v-300h-1500v300z" />
    <glyph glyph-name="F" unicode="F" 
d="M150 900h1501l-1 -300h-1500v300zM150 1500h1501v-300h-1501v300z" />
    <glyph glyph-name="G" unicode="G" 
d="M1650 800v-800h-1000q-500 0 -500 500v500q0 500 500 500h1000v-300h-959q-241 0 -241 -240v-419q0 -241 242 -241h658v500h300z" />
    <glyph glyph-name="H" unicode="H" 
d="M1350 900v599l300 1v-1500h-300v600h-900v-600h-300v1500h300v-600h900z" />
    <glyph glyph-name="I" unicode="I" horiz-adv-x="600" 
d="M450 0h-300v1500h300v-1500z" />
    <glyph glyph-name="J" unicode="J" 
d="M1351 1500h300v-1000q0 -500 -500 -500h-500q-511 0 -501 500l1 50h300v-9q0 -241 240 -241h419q241 0 241 242v958z" />
    <glyph glyph-name="K" unicode="K" 
d="M369 750l833 750h448l-833 -750l833 -750h-448z" />
    <glyph glyph-name="L" unicode="L" 
d="M1650 300v-300h-1500v1500h300v-1200h1200z" />
    <glyph glyph-name="M" unicode="M" horiz-adv-x="2100" 
d="M450 849v-849h-300v1500h307l593 -1167l593 1167h307v-1500h-300v850l-431 -849v-1h-338z" />
    <glyph glyph-name="N" unicode="N" 
d="M450 1045v-1045h-300v1500h306l894 -1045v1045h300v-1500h-305z" />
    <glyph glyph-name="O" unicode="O" 
d="M1100 300q250 0 250 250v400q0 250 -250 250h-450q-200 0 -200 -250v-400q0 -250 250 -250h400zM1150 0l-500 -1v1q-500 0 -500 500v500q0 500 500 500h500q500 0 500 -500v-500q0 -499 -500 -500z" />
    <glyph glyph-name="P" unicode="P" 
d="M150 900h950q250 0 250 150t-250 150h-950v300h1000q500 0 500 -450t-500 -450h-1000v300z" />
    <glyph glyph-name="Q" unicode="Q" 
d="M1378 34q-97 -34 -228 -34l-500 -1v1q-500 0 -500 500v500q0 500 500 500h500q500 0 500 -500v-500q0 -170 -58 -282l108 -118l-200 -200zM1136 301l-136 149l200 200l147 -161q3 24 3 52v419q0 240 -241 240l-448 -1q-211 0 -211 -239v-419q0 -241 242 -241h416
q14 0 28 1z" />
    <glyph glyph-name="R" unicode="R" 
d="M596 600h-446v300h950q250 0 250 150t-250 150h-950v300h1000q500 0 500 -450t-500 -450h-93l704 -600h-461z" />
    <glyph glyph-name="S" unicode="S" 
d="M650 600q-500 0 -500 450t500 450h1000v-300h-950q-250 0 -250 -150t250 -150h450q500 0 500 -450t-500 -450h-1000v300h950q250 0 250 150t-250 150h-450z" />
    <glyph glyph-name="T" unicode="T" 
d="M750 1200h-599l-1 300h1500v-300h-600v-1200h-300v1200z" />
    <glyph glyph-name="U" unicode="U" 
d="M1350 1500h300v-1000q0 -500 -500 -500h-500q-500 0 -500 500v1000h300v-959q0 -241 240 -241h419q241 0 241 242v958z" />
    <glyph glyph-name="V" unicode="V" horiz-adv-x="1700" 
d="M1665 1500l-651 -1500h-326l-651 1500h327l487 -1123l488 1123h326z" />
    <glyph glyph-name="W" unicode="W" horiz-adv-x="2100" 
d="M445 0l-449 1500h313l293 -977l292 977h313l293 -977l292 977h313l-449 -1500h-313l-292 977l-293 -977h-313z" />
    <glyph glyph-name="X" unicode="X" horiz-adv-x="1700" 
d="M850 516l-431 -516h-392l627 750l-627 750h392l431 -516l431 516h392l-627 -750l627 -750h-392z" />
    <glyph glyph-name="Y" unicode="Y" horiz-adv-x="1700" 
d="M1000 695v-695h-300v695l-673 805h392l431 -515l431 515h392z" />
    <glyph glyph-name="Z" unicode="Z" 
d="M1191 1200h-1041v300h1500v-300l-1041 -900h1041v-300h-1500v300z" />
    <glyph glyph-name="bracketleft" unicode="[" horiz-adv-x="900" 
d="M750 0v-300h-600v2100h600v-300h-300v-1500h300z" />
    <glyph glyph-name="backslash" unicode="\" horiz-adv-x="750" 
d="M50 1500h350l300 -1500h-350z" />
    <glyph glyph-name="bracketright" unicode="]" horiz-adv-x="900" 
d="M450 0v1500h-300v300h600v-2100h-600v300h300z" />
    <glyph glyph-name="underscore" unicode="_" 
d="M0 -300v300h1800v-300h-1800z" />
    <glyph glyph-name="grave" unicode="`" horiz-adv-x="550" 
d="M250 1600l-200 350h250l200 -350h-250z" />
    <glyph glyph-name="a" unicode="a" horiz-adv-x="1700" 
d="M494 300l-130 -300h-327l651 1500h326l651 -1500h-326l-130 300h-715zM1078 600l-227 523l-227 -523h454z" />
    <glyph glyph-name="b" unicode="b" 
d="M1150 1500q500 0 500 -450q0 -250 -150 -300q150 -50 150 -300q0 -450 -500 -450h-1000v1500h1000zM1150 600h-700v-300h650q250 0 250 150t-200 150zM1150 900q200 0 200 150t-250 150h-650v-300h700z" />
    <glyph glyph-name="c" unicode="c" 
d="M1650 300v-300h-1000q-500 0 -500 500v500q0 500 500 500h1000v-300h-959q-241 0 -241 -240v-419q0 -241 242 -241h958z" />
    <glyph glyph-name="d" unicode="d" 
d="M1150 1500q500 0 500 -500v-500q0 -500 -500 -500h-1000v1500h1000zM1109 1200h-659v-900h658q240 0 240 237v427q0 236 -239 236z" />
    <glyph glyph-name="e" unicode="e" 
d="M450 300h1200v-300h-1500v1500h1500v-300h-1200v-300h1200v-300h-1200v-300z" />
    <glyph glyph-name="f" unicode="f" 
d="M450 900h1200v-300h-1200v-600h-300v1500h1500v-300h-1200v-300z" />
    <glyph glyph-name="g" unicode="g" 
d="M1650 800v-800h-1000q-500 0 -500 500v500q0 500 500 500h1000v-300h-959q-241 0 -241 -240v-419q0 -241 242 -241h658v500h300z" />
    <glyph glyph-name="h" unicode="h" 
d="M1350 900v599l300 1v-1500h-300v600h-900v-600h-300v1500h300v-600h900z" />
    <glyph glyph-name="i" unicode="i" horiz-adv-x="600" 
d="M450 0h-300v1500h300v-1500z" />
    <glyph glyph-name="j" unicode="j" 
d="M1351 1500h300v-1000q0 -500 -500 -500h-500q-511 0 -501 500l1 50h300v-9q0 -241 240 -241h419q241 0 241 242v958z" />
    <glyph glyph-name="k" unicode="k" 
d="M450 677v-677h-300v1500h300v-677l752 677h448l-832 -750l832 -750h-448z" />
    <glyph glyph-name="l" unicode="l" 
d="M1650 300v-300h-1500v1500h300v-1200h1200z" />
    <glyph glyph-name="m" unicode="m" horiz-adv-x="2100" 
d="M450 849v-849h-300v1500h307l593 -1167l593 1167h307v-1500h-300v850l-431 -849v-1h-338z" />
    <glyph glyph-name="n" unicode="n" 
d="M450 1045v-1045h-300v1500h306l894 -1045v1045h300v-1500h-305z" />
    <glyph glyph-name="o" unicode="o" 
d="M1100 300q250 0 250 250v400q0 250 -250 250h-450q-200 0 -200 -250v-400q0 -250 250 -250h400zM1150 0l-500 -1v1q-500 0 -500 500v500q0 500 500 500h500q500 0 500 -500v-500q0 -499 -500 -500z" />
    <glyph glyph-name="p" unicode="p" 
d="M1100 900q250 0 250 150t-250 150h-650v-300h650zM450 0h-300v1500h1000q500 0 500 -450t-500 -450h-700v-600z" />
    <glyph glyph-name="q" unicode="q" 
d="M1378 34q-97 -34 -228 -34l-500 -1v1q-500 0 -500 500v500q0 500 500 500h500q500 0 500 -500v-500q0 -170 -58 -282l108 -118l-200 -200zM1136 301l-136 149l200 200l147 -161q3 24 3 52v419q0 240 -241 240h-449q-210 -1 -210 -240v-419q0 -241 242 -241h416q14 0 28 1
z" />
    <glyph glyph-name="r" unicode="r" 
d="M1100 900q250 0 250 150t-250 150h-650v-300h650zM596 600h-146v-600h-300v1500h1000q500 0 500 -450t-500 -450h-93l704 -600h-461z" />
    <glyph glyph-name="s" unicode="s" 
d="M650 600q-500 0 -500 450t500 450h1000v-300h-950q-250 0 -250 -150t250 -150h450q500 0 500 -450t-500 -450h-1000v300h950q250 0 250 150t-250 150h-450z" />
    <glyph glyph-name="t" unicode="t" 
d="M750 1200h-599l-1 300h1500v-300h-600v-1200h-300v1200z" />
    <glyph glyph-name="u" unicode="u" 
d="M1350 1500h300v-1000q0 -500 -500 -500h-500q-500 0 -500 500v1000h300v-959q0 -241 240 -241h419q241 0 241 242v958z" />
    <glyph glyph-name="v" unicode="v" horiz-adv-x="1700" 
d="M1665 1500l-651 -1500h-326l-651 1500h327l487 -1123l488 1123h326z" />
    <glyph glyph-name="w" unicode="w" horiz-adv-x="2100" 
d="M445 0l-449 1500h313l293 -977l292 977h313l293 -977l292 977h313l-449 -1500h-313l-292 977l-293 -977h-313z" />
    <glyph glyph-name="x" unicode="x" horiz-adv-x="1700" 
d="M850 516l-431 -516h-392l627 750l-627 750h392l431 -516l431 516h392l-627 -750l627 -750h-392z" />
    <glyph glyph-name="y" unicode="y" horiz-adv-x="1700" 
d="M1000 695v-695h-300v695l-673 805h392l431 -515l431 515h392z" />
    <glyph glyph-name="z" unicode="z" 
d="M1191 1200h-1041v300h1500v-300l-1041 -900h1041v-300h-1500v300z" />
    <glyph glyph-name="bar" unicode="|" horiz-adv-x="600" 
d="M450 -150h-300l1 1650h300z" />
    <glyph glyph-name="asciitilde" unicode="~" horiz-adv-x="1500" 
d="M150 600v300q149 -75 299 -75q120 0 299.5 75t300.5 75q150 0 301 -75v-300q-150 75 -300 75q-121 0 -300 -75t-300 -75q-150 0 -300 75z" />
    <glyph glyph-name="exclamdown" unicode="&#xa1;" horiz-adv-x="600" 
d="M450 1500v-300h-300v300h300zM150 900h300v-900h-300v900z" />
    <glyph glyph-name="cent" unicode="&#xa2;" horiz-adv-x="1500" 
d="M578 240l144 720h-139q-193 0 -193 -192v-335q0 -190 188 -193zM928 240h422v-240h-470l-30 -150h-350l30 150q-380 10 -380 400v400q0 400 400 400h220l30 150h350l-30 -150h230v-240h-278z" />
    <glyph glyph-name="sterling" unicode="&#xa3;" horiz-adv-x="1900" 
d="M250 900v100q0 500 500 500h1000v-300h-950q-250 0 -250 -150v-149l900 -1v-300h-900v-300h1200v-300h-1500v600h-150v300h150z" />
    <glyph glyph-name="yen" unicode="&#xa5;" horiz-adv-x="1700" 
d="M1000 180v-180h-300v180h-450v270h450v150l-22 30h-428v270h233l-433 600h350l450 -600l450 600h350l-434 -601h235l-1 -269h-428l-22 -30v-151h451l-1 -269h-450z" />
    <glyph glyph-name="brokenbar" unicode="&#xa6;" horiz-adv-x="450" 
d="M301 600v-750h-300l-1 750h301zM1 900l1 600h300l-1 -600h-300z" />
    <glyph glyph-name="dieresis" unicode="&#xa8;" horiz-adv-x="950" 
d="M150 1600v250h250v-250h-250zM550 1600v250h250v-250h-250z" />
    <glyph glyph-name="macron" unicode="&#xaf;" horiz-adv-x="1200" 
d="M151 1250l-1 251l900 -1v-250h-899z" />
    <glyph glyph-name="degree" unicode="&#xb0;" horiz-adv-x="1000" 
d="M516 985q149 0 149 149v33q0 151 -149 148l-51 -1q-130 -3 -130 -147v-33q0 -149 149 -149h32zM542 800l-84 -1v1q-308 0 -308 308v84q0 308 308 308h84q308 0 308 -308v-84q0 -304 -308 -308z" />
    <glyph glyph-name="acute" unicode="&#xb4;" horiz-adv-x="550" 
d="M50 1600l200 350h250l-200 -350h-250z" />
    <glyph glyph-name="periodcentered" unicode="&#xb7;" horiz-adv-x="600" 
d="M150 623v255h255v-255h-255z" />
    <glyph glyph-name="periodcentered" unicode="&#x2219;" horiz-adv-x="600" 
d="M150 623v255h255v-255h-255z" />
    <glyph glyph-name="questiondown" unicode="&#xbf;" 
d="M1150 900v-300h-450q-250 0 -250 -150t250 -150h950v-300h-1000q-500 0 -500 500q0 400 500 400h500zM1150 1500v-300h-300v300h300z" />
    <glyph glyph-name="Agrave" unicode="&#xc0;" horiz-adv-x="1700" 
d="M1339 0l-488 1123l-487 -1123h-327l651 1500h326l651 -1500h-326zM751 1600l-200 350h250l200 -350h-250z" />
    <glyph glyph-name="Aacute" unicode="&#xc1;" horiz-adv-x="1700" 
d="M1339 0l-488 1123l-487 -1123h-327l651 1500h326l651 -1500h-326zM701 1600l200 350h250l-200 -350h-250z" />
    <glyph glyph-name="Acircumflex" unicode="&#xc2;" horiz-adv-x="1700" 
d="M1339 0l-488 1123l-487 -1123h-327l651 1500h326l651 -1500h-326zM501 1600l250 350h200l250 -350h-250l-100 150l-100 -150h-250z" />
    <glyph glyph-name="Atilde" unicode="&#xc3;" horiz-adv-x="1700" 
d="M1339 0l-488 1123l-487 -1123h-327l651 1500h326l651 -1500h-326zM387 1658v232q115 -58 231 -58q93 0 231.5 58t233.5 58q116 0 233 -58v-232q-116 58 -232 58q-94 0 -232.5 -58t-232.5 -58q-116 0 -232 58z" />
    <glyph glyph-name="Adieresis" unicode="&#xc4;" horiz-adv-x="1700" 
d="M1339 0l-488 1123l-487 -1123h-327l651 1500h326l651 -1500h-326zM526 1600v250h250v-250h-250zM926 1600v250h250v-250h-250z" />
    <glyph glyph-name="Aring" unicode="&#xc5;" horiz-adv-x="1700" 
d="M1339 0l-488 1123l-487 -1123h-327l651 1500h326l651 -1500h-326zM859 1501q68 0 68 67v15q0 68 -68 68h-23q-59 0 -59 -68v-15q0 -67 67 -67h15zM878 1351l-53 -1v1q-198 0 -198 198v53q0 198 198 198h53q198 0 198 -198v-53q0 -194 -198 -198z" />
    <glyph glyph-name="AE" unicode="&#xc6;" horiz-adv-x="2550" 
d="M1274 900h1126v-300h-995l130 -300h865v-300h-1061l-488 1123l-487 -1123h-327l651 1500h1712v-300h-1256z" />
    <glyph glyph-name="Egrave" unicode="&#xc8;" 
d="M150 0v300h1500v-300h-1500zM150 900h1500v-300h-1500v300zM150 1500h1500v-300h-1500v300zM800 1600l-200 350h250l200 -350h-250z" />
    <glyph glyph-name="Eacute" unicode="&#xc9;" 
d="M150 0v300h1500v-300h-1500zM150 900h1500v-300h-1500v300zM150 1500h1500v-300h-1500v300zM750 1600l200 350h250l-200 -350h-250z" />
    <glyph glyph-name="Ecircumflex" unicode="&#xca;" 
d="M150 0v300h1500v-300h-1500zM150 900h1500v-300h-1500v300zM150 1500h1500v-300h-1500v300zM550 1600l250 350h200l250 -350h-250l-100 150l-100 -150h-250z" />
    <glyph glyph-name="Edieresis" unicode="&#xcb;" 
d="M150 0v300h1500v-300h-1500zM150 900h1500v-300h-1500v300zM150 1500h1500v-300h-1500v300zM575 1600v250h250v-250h-250zM975 1600v250h250v-250h-250z" />
    <glyph glyph-name="Igrave" unicode="&#xcc;" horiz-adv-x="600" 
d="M450 0h-300v1500h300v-1500zM200 1600l-200 350h250l200 -350h-250z" />
    <glyph glyph-name="Iacute" unicode="&#xcd;" horiz-adv-x="600" 
d="M450 0h-300v1500h300v-1500zM150 1600l200 350h250l-200 -350h-250z" />
    <glyph glyph-name="Icircumflex" unicode="&#xce;" horiz-adv-x="600" 
d="M450 0h-300v1500h300v-1500zM-50 1600l250 350h200l250 -350h-250l-100 150l-100 -150h-250z" />
    <glyph glyph-name="Idieresis" unicode="&#xcf;" horiz-adv-x="600" 
d="M450 0h-300v1500h300v-1500zM-25 1600v250h250v-250h-250zM375 1600v250h250v-250h-250z" />
    <glyph glyph-name="Ntilde" unicode="&#xd1;" 
d="M450 1045v-1045h-300v1500h306l894 -1045v1045h300v-1500h-305zM436 1658v232q115 -58 231 -58q93 0 231.5 58t233.5 58q116 0 233 -58v-232q-116 58 -232 58q-94 0 -232.5 -58t-232.5 -58q-116 0 -232 58z" />
    <glyph glyph-name="Ograve" unicode="&#xd2;" 
d="M1100 300q250 0 250 250v400q0 250 -250 250h-450q-200 0 -200 -250v-400q0 -250 250 -250h400zM1150 0l-500 -1v1q-500 0 -500 500v500q0 500 500 500h500q500 0 500 -500v-500q0 -499 -500 -500zM800 1600l-200 350h250l200 -350h-250z" />
    <glyph glyph-name="Oacute" unicode="&#xd3;" 
d="M1100 300q250 0 250 250v400q0 250 -250 250h-450q-200 0 -200 -250v-400q0 -250 250 -250h400zM1150 0l-500 -1v1q-500 0 -500 500v500q0 500 500 500h500q500 0 500 -500v-500q0 -499 -500 -500zM750 1600l200 350h250l-200 -350h-250z" />
    <glyph glyph-name="Ocircumflex" unicode="&#xd4;" 
d="M1100 300q250 0 250 250v400q0 250 -250 250h-450q-200 0 -200 -250v-400q0 -250 250 -250h400zM1150 0l-500 -1v1q-500 0 -500 500v500q0 500 500 500h500q500 0 500 -500v-500q0 -499 -500 -500zM550 1600l250 350h200l250 -350h-250l-100 150l-100 -150h-250z" />
    <glyph glyph-name="Otilde" unicode="&#xd5;" 
d="M1100 300q250 0 250 250v400q0 250 -250 250h-450q-200 0 -200 -250v-400q0 -250 250 -250h400zM1150 0l-500 -1v1q-500 0 -500 500v500q0 500 500 500h500q500 0 500 -500v-500q0 -499 -500 -500zM436 1658v232q115 -58 231 -58q93 0 231.5 58t233.5 58q116 0 233 -58
v-232q-116 58 -232 58q-94 0 -232.5 -58t-232.5 -58q-116 0 -232 58z" />
    <glyph glyph-name="Odieresis" unicode="&#xd6;" 
d="M1100 300q250 0 250 250v400q0 250 -250 250h-450q-200 0 -200 -250v-400q0 -250 250 -250h400zM1150 0l-500 -1v1q-500 0 -500 500v500q0 500 500 500h500q500 0 500 -500v-500q0 -499 -500 -500zM575 1600v250h250v-250h-250zM975 1600v250h250v-250h-250z" />
    <glyph glyph-name="multiply" unicode="&#xd7;" horiz-adv-x="1500" 
d="M680 538l-318 -318l-212 212l318 318l-318 319l212 212l319 -319l319 319l211 -212l-319 -318l319 -319l-212 -213z" />
    <glyph glyph-name="Oslash" unicode="&#xd8;" 
d="M1100 300q250 0 250 250v400q0 250 -250 250h-450q-200 0 -200 -250v-400q0 -250 250 -250h400zM1150 0l-500 -1v1q-500 0 -500 500v500q0 500 500 500h500q500 0 500 -500v-500q0 -499 -500 -500zM925 0h-350l300 1500h350z" />
    <glyph glyph-name="Ugrave" unicode="&#xd9;" 
d="M1350 1500h300v-1000q0 -500 -500 -500h-500q-500 0 -500 500v1000h300v-959q0 -241 240 -241h419q241 0 241 242v958zM800 1600l-200 350h250l200 -350h-250z" />
    <glyph glyph-name="Uacute" unicode="&#xda;" 
d="M1350 1500h300v-1000q0 -500 -500 -500h-500q-500 0 -500 500v1000h300v-959q0 -241 240 -241h419q241 0 241 242v958zM750 1600l200 350h250l-200 -350h-250z" />
    <glyph glyph-name="Ucircumflex" unicode="&#xdb;" 
d="M1350 1500h300v-1000q0 -500 -500 -500h-500q-500 0 -500 500v1000h300v-959q0 -241 240 -241h419q241 0 241 242v958zM550 1600l250 350h200l250 -350h-250l-100 150l-100 -150h-250z" />
    <glyph glyph-name="Udieresis" unicode="&#xdc;" 
d="M1350 1500h300v-1000q0 -500 -500 -500h-500q-500 0 -500 500v1000h300v-959q0 -241 240 -241h419q241 0 241 242v958zM575 1600v250h250v-250h-250zM975 1600v250h250v-250h-250z" />
    <glyph glyph-name="Yacute" unicode="&#xdd;" horiz-adv-x="1700" 
d="M1000 695v-695h-300v695l-673 805h392l431 -515l431 515h392zM700 1600l200 350h250l-200 -350h-250z" />
    <glyph glyph-name="Thorn" unicode="&#xde;" 
d="M1100 600q250 0 250 150t-250 150h-650v-300h650zM450 0h-300v1500h300v-300h700q500 0 500 -450t-500 -450h-700v-300z" />
    <glyph glyph-name="germandbls" unicode="&#xdf;" 
d="M650 600v300h250q250 0 250 150t-250 150h-450v-1200h-300v1500h800q500 0 500 -450q0 -112 -31 -196q231 -98 231 -404q0 -450 -500 -450h-550v300h500q250 0 250 150t-250 150h-450z" />
    <glyph glyph-name="agrave" unicode="&#xe0;" horiz-adv-x="1700" 
d="M494 300l-130 -300h-327l651 1500h326l651 -1500h-326l-130 300h-715zM1078 600l-227 523l-227 -523h454zM751 1600l-200 350h250l200 -350h-250z" />
    <glyph glyph-name="aacute" unicode="&#xe1;" horiz-adv-x="1700" 
d="M494 300l-130 -300h-327l651 1500h326l651 -1500h-326l-130 300h-715zM1078 600l-227 523l-227 -523h454zM701 1600l200 350h250l-200 -350h-250z" />
    <glyph glyph-name="acircumflex" unicode="&#xe2;" horiz-adv-x="1700" 
d="M494 300l-130 -300h-327l651 1500h326l651 -1500h-326l-130 300h-715zM1078 600l-227 523l-227 -523h454zM501 1600l250 350h200l250 -350h-250l-100 150l-100 -150h-250z" />
    <glyph glyph-name="atilde" unicode="&#xe3;" horiz-adv-x="1700" 
d="M494 300l-130 -300h-327l651 1500h326l651 -1500h-326l-130 300h-715zM1078 600l-227 523l-227 -523h454zM387 1658v232q115 -58 231 -58q93 0 231.5 58t233.5 58q116 0 233 -58v-232q-116 58 -232 58q-94 0 -232.5 -58t-232.5 -58q-116 0 -232 58z" />
    <glyph glyph-name="adieresis" unicode="&#xe4;" horiz-adv-x="1700" 
d="M494 300l-130 -300h-327l651 1500h326l651 -1500h-326l-130 300h-715zM1078 600l-227 523l-227 -523h454zM526 1600v250h250v-250h-250zM926 1600v250h250v-250h-250z" />
    <glyph glyph-name="aring" unicode="&#xe5;" horiz-adv-x="1700" 
d="M494 300l-130 -300h-327l651 1500h326l651 -1500h-326l-130 300h-715zM1078 600l-227 523l-227 -523h454zM859 1501q68 0 68 67v15q0 68 -68 68h-23q-59 0 -59 -68v-15q0 -67 67 -67h15zM878 1351l-53 -1v1q-198 0 -198 198v53q0 198 198 198h53q198 0 198 -198v-53
q0 -194 -198 -198z" />
    <glyph glyph-name="ae" unicode="&#xe6;" horiz-adv-x="2550" 
d="M2400 1500v-300h-1256l130 -300h1126v-300h-995l130 -300h865v-300h-1061l-130 300h-715l-130 -300h-327l651 1500h1712zM1078 600l-227 523l-227 -523h454z" />
    <glyph glyph-name="egrave" unicode="&#xe8;" 
d="M450 300h1200v-300h-1500v1500h1500v-300h-1200v-300h1200v-300h-1200v-300zM800 1600l-200 350h250l200 -350h-250z" />
    <glyph glyph-name="eacute" unicode="&#xe9;" 
d="M450 300h1200v-300h-1500v1500h1500v-300h-1200v-300h1200v-300h-1200v-300zM750 1600l200 350h250l-200 -350h-250z" />
    <glyph glyph-name="ecircumflex" unicode="&#xea;" 
d="M450 300h1200v-300h-1500v1500h1500v-300h-1200v-300h1200v-300h-1200v-300zM550 1600l250 350h200l250 -350h-250l-100 150l-100 -150h-250z" />
    <glyph glyph-name="edieresis" unicode="&#xeb;" 
d="M450 300h1200v-300h-1500v1500h1500v-300h-1200v-300h1200v-300h-1200v-300zM575 1600v250h250v-250h-250zM975 1600v250h250v-250h-250z" />
    <glyph glyph-name="igrave" unicode="&#xec;" horiz-adv-x="600" 
d="M450 0h-300v1500h300v-1500zM200 1600l-200 350h250l200 -350h-250z" />
    <glyph glyph-name="iacute" unicode="&#xed;" horiz-adv-x="600" 
d="M450 0h-300v1500h300v-1500zM150 1600l200 350h250l-200 -350h-250z" />
    <glyph glyph-name="icircumflex" unicode="&#xee;" horiz-adv-x="600" 
d="M450 0h-300v1500h300v-1500zM-50 1600l250 350h200l250 -350h-250l-100 150l-100 -150h-250z" />
    <glyph glyph-name="idieresis" unicode="&#xef;" horiz-adv-x="600" 
d="M450 0h-300v1500h300v-1500zM-25 1600v250h250v-250h-250zM375 1600v250h250v-250h-250z" />
    <glyph glyph-name="ntilde" unicode="&#xf1;" 
d="M450 1045v-1045h-300v1500h306l894 -1045v1045h300v-1500h-305zM436 1658v232q115 -58 231 -58q93 0 231.5 58t233.5 58q116 0 233 -58v-232q-116 58 -232 58q-94 0 -232.5 -58t-232.5 -58q-116 0 -232 58z" />
    <glyph glyph-name="ograve" unicode="&#xf2;" 
d="M1100 300q250 0 250 250v400q0 250 -250 250h-450q-200 0 -200 -250v-400q0 -250 250 -250h400zM1150 0l-500 -1v1q-500 0 -500 500v500q0 500 500 500h500q500 0 500 -500v-500q0 -499 -500 -500zM800 1600l-200 350h250l200 -350h-250z" />
    <glyph glyph-name="oacute" unicode="&#xf3;" 
d="M1100 300q250 0 250 250v400q0 250 -250 250h-450q-200 0 -200 -250v-400q0 -250 250 -250h400zM1150 0l-500 -1v1q-500 0 -500 500v500q0 500 500 500h500q500 0 500 -500v-500q0 -499 -500 -500zM750 1600l200 350h250l-200 -350h-250z" />
    <glyph glyph-name="ocircumflex" unicode="&#xf4;" 
d="M1100 300q250 0 250 250v400q0 250 -250 250h-450q-200 0 -200 -250v-400q0 -250 250 -250h400zM1150 0l-500 -1v1q-500 0 -500 500v500q0 500 500 500h500q500 0 500 -500v-500q0 -499 -500 -500zM550 1600l250 350h200l250 -350h-250l-100 150l-100 -150h-250z" />
    <glyph glyph-name="otilde" unicode="&#xf5;" 
d="M1100 300q250 0 250 250v400q0 250 -250 250h-450q-200 0 -200 -250v-400q0 -250 250 -250h400zM1150 0l-500 -1v1q-500 0 -500 500v500q0 500 500 500h500q500 0 500 -500v-500q0 -499 -500 -500zM436 1658v232q115 -58 231 -58q93 0 231.5 58t233.5 58q116 0 233 -58
v-232q-116 58 -232 58q-94 0 -232.5 -58t-232.5 -58q-116 0 -232 58z" />
    <glyph glyph-name="odieresis" unicode="&#xf6;" 
d="M1100 300q250 0 250 250v400q0 250 -250 250h-450q-200 0 -200 -250v-400q0 -250 250 -250h400zM1150 0l-500 -1v1q-500 0 -500 500v500q0 500 500 500h500q500 0 500 -500v-500q0 -499 -500 -500zM575 1600v250h250v-250h-250zM975 1600v250h250v-250h-250z" />
    <glyph glyph-name="divide" unicode="&#xf7;" horiz-adv-x="1500" 
d="M150 601v300l1201 -1l-1 -299h-1200zM600 1050v300h300v-300h-300zM600 150v300h300v-300h-300z" />
    <glyph glyph-name="oslash" unicode="&#xf8;" 
d="M1100 300q250 0 250 250v400q0 250 -250 250h-450q-200 0 -200 -250v-400q0 -250 250 -250h400zM1150 0l-500 -1v1q-500 0 -500 500v500q0 500 500 500h500q500 0 500 -500v-500q0 -499 -500 -500zM925 0h-350l300 1500h350z" />
    <glyph glyph-name="ugrave" unicode="&#xf9;" 
d="M1350 1500h300v-1000q0 -500 -500 -500h-500q-500 0 -500 500v1000h300v-959q0 -241 240 -241h419q241 0 241 242v958zM800 1600l-200 350h250l200 -350h-250z" />
    <glyph glyph-name="uacute" unicode="&#xfa;" 
d="M1350 1500h300v-1000q0 -500 -500 -500h-500q-500 0 -500 500v1000h300v-959q0 -241 240 -241h419q241 0 241 242v958zM750 1600l200 350h250l-200 -350h-250z" />
    <glyph glyph-name="ucircumflex" unicode="&#xfb;" 
d="M1350 1500h300v-1000q0 -500 -500 -500h-500q-500 0 -500 500v1000h300v-959q0 -241 240 -241h419q241 0 241 242v958zM550 1600l250 350h200l250 -350h-250l-100 150l-100 -150h-250z" />
    <glyph glyph-name="udieresis" unicode="&#xfc;" 
d="M1350 1500h300v-1000q0 -500 -500 -500h-500q-500 0 -500 500v1000h300v-959q0 -241 240 -241h419q241 0 241 242v958zM575 1600v250h250v-250h-250zM975 1600v250h250v-250h-250z" />
    <glyph glyph-name="yacute" unicode="&#xfd;" horiz-adv-x="1700" 
d="M1000 695v-695h-300v695l-673 805h392l431 -515l431 515h392zM700 1600l200 350h250l-200 -350h-250z" />
    <glyph glyph-name="thorn" unicode="&#xfe;" 
d="M1100 600q250 0 250 150t-250 150h-650v-300h650zM450 0h-300v1500h300v-300h700q500 0 500 -450t-500 -450h-700v-300z" />
    <glyph glyph-name="ydieresis" unicode="&#xff;" horiz-adv-x="1700" 
d="M1000 695v-695h-300v695l-673 805h392l431 -515l431 515h392zM525 1600v250h250v-250h-250zM925 1600v250h250v-250h-250z" />
    <glyph glyph-name="Amacron" unicode="&#x100;" horiz-adv-x="1700" 
d="M1339 0l-488 1123l-487 -1123h-327l651 1500h326l651 -1500h-326zM401 1600v250h900v-250h-900z" />
    <glyph glyph-name="amacron" unicode="&#x101;" horiz-adv-x="1700" 
d="M494 300l-130 -300h-327l651 1500h326l651 -1500h-326l-130 300h-715zM1078 600l-227 523l-227 -523h454zM401 1600v250h900v-250h-900z" />
    <glyph glyph-name="Abreve" unicode="&#x102;" horiz-adv-x="1700" 
d="M1339 0l-488 1123l-487 -1123h-327l651 1500h326l651 -1500h-326zM701 1950q0 -150 150 -150t150 150h200q0 -350 -350 -350t-350 349z" />
    <glyph glyph-name="abreve" unicode="&#x103;" horiz-adv-x="1700" 
d="M494 300l-130 -300h-327l651 1500h326l651 -1500h-326l-130 300h-715zM1078 600l-227 523l-227 -523h454zM701 1950q0 -150 150 -150t150 150h200q0 -350 -350 -350t-350 349z" />
    <glyph glyph-name="Cacute" unicode="&#x106;" 
d="M1650 300v-300h-1000q-500 0 -500 500v500q0 500 500 500h1000v-300h-959q-241 0 -241 -240v-419q0 -241 242 -241h958zM750 1600l200 350h250l-200 -350h-250z" />
    <glyph glyph-name="cacute" unicode="&#x107;" 
d="M1650 300v-300h-1000q-500 0 -500 500v500q0 500 500 500h1000v-300h-959q-241 0 -241 -240v-419q0 -241 242 -241h958zM750 1600l200 350h250l-200 -350h-250z" />
    <glyph glyph-name="Ccircumflex" unicode="&#x108;" 
d="M1650 300v-300h-1000q-500 0 -500 500v500q0 500 500 500h1000v-300h-959q-241 0 -241 -240v-419q0 -241 242 -241h958zM550 1600l250 350h200l250 -350h-250l-100 150l-100 -150h-250z" />
    <glyph glyph-name="ccircumflex" unicode="&#x109;" 
d="M1650 300v-300h-1000q-500 0 -500 500v500q0 500 500 500h1000v-300h-959q-241 0 -241 -240v-419q0 -241 242 -241h958zM550 1600l250 350h200l250 -350h-250l-100 150l-100 -150h-250z" />
    <glyph glyph-name="Cdotaccent" unicode="&#x10a;" 
d="M1650 300v-300h-1000q-500 0 -500 500v500q0 500 500 500h1000v-300h-959q-241 0 -241 -240v-419q0 -241 242 -241h958zM775 1600v250h250v-250h-250z" />
    <glyph glyph-name="cdotaccent" unicode="&#x10b;" 
d="M1650 300v-300h-1000q-500 0 -500 500v500q0 500 500 500h1000v-300h-959q-241 0 -241 -240v-419q0 -241 242 -241h958zM775 1600v250h250v-250h-250z" />
    <glyph glyph-name="Ccaron" unicode="&#x10c;" 
d="M1650 300v-300h-1000q-500 0 -500 500v500q0 500 500 500h1000v-300h-959q-241 0 -241 -240v-419q0 -241 242 -241h958zM800 1950l100 -150l100 150h250l-250 -350h-200l-250 350h250z" />
    <glyph glyph-name="ccaron" unicode="&#x10d;" 
d="M1650 300v-300h-1000q-500 0 -500 500v500q0 500 500 500h1000v-300h-959q-241 0 -241 -240v-419q0 -241 242 -241h958zM800 1950l100 -150l100 150h250l-250 -350h-200l-250 350h250z" />
    <glyph glyph-name="Dcaron" unicode="&#x10e;" 
d="M150 1200v300h1000q500 0 500 -500v-500q0 -500 -500 -500h-1000v300h958q240 0 240 237v427q0 236 -239 236h-959zM800 1950l100 -150l100 150h250l-250 -350h-200l-250 350h250z" />
    <glyph glyph-name="dcaron" unicode="&#x10f;" 
d="M1150 1500q500 0 500 -500v-500q0 -500 -500 -500h-1000v1500h1000zM1109 1200h-659v-900h658q240 0 240 237v427q0 236 -239 236zM800 1950l100 -150l100 150h250l-250 -350h-200l-250 350h250z" />
    <glyph glyph-name="Emacron" unicode="&#x112;" 
d="M150 0v300h1500v-300h-1500zM150 900h1500v-300h-1500v300zM150 1500h1500v-300h-1500v300zM450 1600v250h900v-250h-900z" />
    <glyph glyph-name="emacron" unicode="&#x113;" 
d="M450 300h1200v-300h-1500v1500h1500v-300h-1200v-300h1200v-300h-1200v-300zM450 1600v250h900v-250h-900z" />
    <glyph glyph-name="Ebreve" unicode="&#x114;" 
d="M150 0v300h1500v-300h-1500zM150 900h1500v-300h-1500v300zM150 1500h1500v-300h-1500v300zM750 1950q0 -150 150 -150t150 150h200q0 -350 -350 -350t-350 349z" />
    <glyph glyph-name="ebreve" unicode="&#x115;" 
d="M450 300h1200v-300h-1500v1500h1500v-300h-1200v-300h1200v-300h-1200v-300zM750 1950q0 -150 150 -150t150 150h200q0 -350 -350 -350t-350 349z" />
    <glyph glyph-name="Edotaccent" unicode="&#x116;" 
d="M150 0v300h1500v-300h-1500zM150 900h1500v-300h-1500v300zM150 1500h1500v-300h-1500v300zM775 1600v250h250v-250h-250z" />
    <glyph glyph-name="edotaccent" unicode="&#x117;" 
d="M450 300h1200v-300h-1500v1500h1500v-300h-1200v-300h1200v-300h-1200v-300zM775 1600v250h250v-250h-250z" />
    <glyph glyph-name="Ecaron" unicode="&#x11a;" 
d="M150 0v300h1500v-300h-1500zM150 900h1500v-300h-1500v300zM150 1500h1500v-300h-1500v300zM800 1950l100 -150l100 150h250l-250 -350h-200l-250 350h250z" />
    <glyph glyph-name="ecaron" unicode="&#x11b;" 
d="M450 300h1200v-300h-1500v1500h1500v-300h-1200v-300h1200v-300h-1200v-300zM800 1950l100 -150l100 150h250l-250 -350h-200l-250 350h250z" />
    <glyph glyph-name="Gcircumflex" unicode="&#x11c;" 
d="M1650 800v-800h-1000q-500 0 -500 500v500q0 500 500 500h1000v-300h-959q-241 0 -241 -240v-419q0 -241 242 -241h658v500h300zM550 1600l250 350h200l250 -350h-250l-100 150l-100 -150h-250z" />
    <glyph glyph-name="gcircumflex" unicode="&#x11d;" 
d="M1650 800v-800h-1000q-500 0 -500 500v500q0 500 500 500h1000v-300h-959q-241 0 -241 -240v-419q0 -241 242 -241h658v500h300zM550 1600l250 350h200l250 -350h-250l-100 150l-100 -150h-250z" />
    <glyph glyph-name="Gbreve" unicode="&#x11e;" 
d="M1650 800v-800h-1000q-500 0 -500 500v500q0 500 500 500h1000v-300h-959q-241 0 -241 -240v-419q0 -241 242 -241h658v500h300zM750 1950q0 -150 150 -150t150 150h200q0 -350 -350 -350t-350 349z" />
    <glyph glyph-name="gbreve" unicode="&#x11f;" 
d="M1650 800v-800h-1000q-500 0 -500 500v500q0 500 500 500h1000v-300h-959q-241 0 -241 -240v-419q0 -241 242 -241h658v500h300zM750 1950q0 -150 150 -150t150 150h200q0 -350 -350 -350t-350 349z" />
    <glyph glyph-name="Gdotaccent" unicode="&#x120;" 
d="M1650 800v-800h-1000q-500 0 -500 500v500q0 500 500 500h1000v-300h-959q-241 0 -241 -240v-419q0 -241 242 -241h658v500h300zM775 1600v250h250v-250h-250z" />
    <glyph glyph-name="gdotaccent" unicode="&#x121;" 
d="M1650 800v-800h-1000q-500 0 -500 500v500q0 500 500 500h1000v-300h-959q-241 0 -241 -240v-419q0 -241 242 -241h658v500h300zM775 1600v250h250v-250h-250z" />
    <glyph glyph-name="Hcircumflex" unicode="&#x124;" 
d="M1350 900v599l300 1v-1500h-300v600h-900v-600h-300v1500h300v-600h900zM550 1600l250 350h200l250 -350h-250l-100 150l-100 -150h-250z" />
    <glyph glyph-name="hcircumflex" unicode="&#x125;" 
d="M1350 900v599l300 1v-1500h-300v600h-900v-600h-300v1500h300v-600h900zM550 1600l250 350h200l250 -350h-250l-100 150l-100 -150h-250z" />
    <glyph glyph-name="Itilde" unicode="&#x128;" horiz-adv-x="600" 
d="M451 0h-300v1500h300v-1500zM-164 1658v232q115 -58 231 -58q93 0 231.5 58t233.5 58q116 0 233 -58v-232q-116 58 -232 58q-94 0 -232.5 -58t-232.5 -58q-116 0 -232 58z" />
    <glyph glyph-name="itilde" unicode="&#x129;" horiz-adv-x="600" 
d="M451 0h-300v1500h300v-1500zM-164 1658v232q115 -58 231 -58q93 0 231.5 58t233.5 58q116 0 233 -58v-232q-116 58 -232 58q-94 0 -232.5 -58t-232.5 -58q-116 0 -232 58z" />
    <glyph glyph-name="Imacron" unicode="&#x12a;" horiz-adv-x="600" 
d="M450 0h-300v1500h300v-1500zM-150 1600v250h900v-250h-900z" />
    <glyph glyph-name="imacron" unicode="&#x12b;" horiz-adv-x="600" 
d="M450 0h-300v1500h300v-1500zM-150 1600v250h900v-250h-900z" />
    <glyph glyph-name="Ibreve" unicode="&#x12c;" horiz-adv-x="600" 
d="M450 0h-300v1500h300v-1500zM150 1950q0 -150 150 -150t150 150h200q0 -350 -350 -350t-350 349z" />
    <glyph glyph-name="ibreve" unicode="&#x12d;" horiz-adv-x="600" 
d="M450 0h-300v1500h300v-1500zM150 1950q0 -150 150 -150t150 150h200q0 -350 -350 -350t-350 349z" />
    <glyph glyph-name="Idotaccent" unicode="&#x130;" horiz-adv-x="600" 
d="M450 0h-300v1500h300v-1500zM175 1600v250h250v-250h-250z" />
    <glyph glyph-name="dotlessi" unicode="&#x131;" horiz-adv-x="600" 
d="M450 0h-300v1500h300v-1500z" />
    <glyph glyph-name="Jcircumflex" unicode="&#x134;" 
d="M1351 1500h300v-1000q0 -500 -500 -500h-500q-511 0 -501 500l1 50h300v-9q0 -241 240 -241h419q241 0 241 242v958zM550 1600l250 350h200l250 -350h-250l-100 150l-100 -150h-250z" />
    <glyph glyph-name="jcircumflex" unicode="&#x135;" 
d="M1351 1500h300v-1000q0 -500 -500 -500h-500q-511 0 -501 500l1 50h300v-9q0 -241 240 -241h419q241 0 241 242v958zM550 1600l250 350h200l250 -350h-250l-100 150l-100 -150h-250z" />
    <glyph glyph-name="kgreenlandic" unicode="&#x138;" 
d="M450 677v-677h-300v1500h300v-677l752 677h448l-832 -750l832 -750h-448z" />
    <glyph glyph-name="Lacute" unicode="&#x139;" 
d="M1650 300v-300h-1500v1500h300v-1200h1200zM750 1600l200 350h250l-200 -350h-250z" />
    <glyph glyph-name="lacute" unicode="&#x13a;" 
d="M1650 300v-300h-1500v1500h300v-1200h1200zM750 1600l200 350h250l-200 -350h-250z" />
    <glyph glyph-name="Lcaron" unicode="&#x13d;" 
d="M1650 300v-300h-1500v1500h300v-1200h1200zM600 1050v600h300v-300q0 -300 -300 -300z" />
    <glyph glyph-name="lcaron" unicode="&#x13e;" 
d="M1650 300v-300h-1500v1500h300v-1200h1200zM600 1050v600h300v-300q0 -300 -300 -300z" />
    <glyph glyph-name="Ldot" unicode="&#x13f;" 
d="M1650 300v-300h-1500v1500h300v-1200h1200zM695 745v255h255v-255h-255z" />
    <glyph glyph-name="ldot" unicode="&#x140;" 
d="M1650 300v-300h-1500v1500h300v-1200h1200zM695 745v255h255v-255h-255z" />
    <glyph glyph-name="Nacute" unicode="&#x143;" 
d="M450 1045v-1045h-300v1500h306l894 -1045v1045h300v-1500h-305zM750 1600l200 350h250l-200 -350h-250z" />
    <glyph glyph-name="nacute" unicode="&#x144;" 
d="M450 1045v-1045h-300v1500h306l894 -1045v1045h300v-1500h-305zM750 1600l200 350h250l-200 -350h-250z" />
    <glyph glyph-name="Ncaron" unicode="&#x147;" 
d="M450 1045v-1045h-300v1500h306l894 -1045v1045h300v-1500h-305zM800 1950l100 -150l100 150h250l-250 -350h-200l-250 350h250z" />
    <glyph glyph-name="ncaron" unicode="&#x148;" 
d="M450 1045v-1045h-300v1500h306l894 -1045v1045h300v-1500h-305zM800 1950l100 -150l100 150h250l-250 -350h-200l-250 350h250z" />
    <glyph glyph-name="Omacron" unicode="&#x14c;" 
d="M1100 300q250 0 250 250v400q0 250 -250 250h-450q-200 0 -200 -250v-400q0 -250 250 -250h400zM1150 0l-500 -1v1q-500 0 -500 500v500q0 500 500 500h500q500 0 500 -500v-500q0 -499 -500 -500zM450 1600v250h900v-250h-900z" />
    <glyph glyph-name="omacron" unicode="&#x14d;" 
d="M1100 300q250 0 250 250v400q0 250 -250 250h-450q-200 0 -200 -250v-400q0 -250 250 -250h400zM1150 0l-500 -1v1q-500 0 -500 500v500q0 500 500 500h500q500 0 500 -500v-500q0 -499 -500 -500zM450 1600v250h900v-250h-900z" />
    <glyph glyph-name="Obreve" unicode="&#x14e;" 
d="M1100 300q250 0 250 250v400q0 250 -250 250h-450q-200 0 -200 -250v-400q0 -250 250 -250h400zM1150 0l-500 -1v1q-500 0 -500 500v500q0 500 500 500h500q500 0 500 -500v-500q0 -499 -500 -500zM750 1950q0 -150 150 -150t150 150h200q0 -350 -350 -350t-350 349z" />
    <glyph glyph-name="obreve" unicode="&#x14f;" 
d="M1100 300q250 0 250 250v400q0 250 -250 250h-450q-200 0 -200 -250v-400q0 -250 250 -250h400zM1150 0l-500 -1v1q-500 0 -500 500v500q0 500 500 500h500q500 0 500 -500v-500q0 -499 -500 -500zM750 1950q0 -150 150 -150t150 150h200q0 -350 -350 -350t-350 349z" />
    <glyph glyph-name="Ohungarumlaut" unicode="&#x150;" 
d="M1100 300q250 0 250 250v400q0 250 -250 250h-450q-200 0 -200 -250v-400q0 -250 250 -250h400zM1150 0l-500 -1v1q-500 0 -500 500v500q0 500 500 500h500q500 0 500 -500v-500q0 -499 -500 -500zM475 1600l200 350h250l-200 -350h-250zM875 1600l200 350h250l-200 -350
h-250z" />
    <glyph glyph-name="ohungarumlaut" unicode="&#x151;" 
d="M1100 300q250 0 250 250v400q0 250 -250 250h-450q-200 0 -200 -250v-400q0 -250 250 -250h400zM1150 0l-500 -1v1q-500 0 -500 500v500q0 500 500 500h500q500 0 500 -500v-500q0 -499 -500 -500zM475 1600l200 350h250l-200 -350h-250zM875 1600l200 350h250l-200 -350
h-250z" />
    <glyph glyph-name="OE" unicode="&#x152;" horiz-adv-x="2550" 
d="M1100 300q250 0 250 250v400q0 250 -250 250h-450q-200 0 -200 -250v-400q0 -250 250 -250h400zM650 -1v1q-500 0 -500 500v500q0 500 500 500h1750v-300h-775q25 -87 25 -200v-100h750v-300h-750v-100q0 -113 -25 -200h775v-300z" />
    <glyph glyph-name="oe" unicode="&#x153;" horiz-adv-x="2550" 
d="M1100 300q250 0 250 250v400q0 250 -250 250h-450q-200 0 -200 -250v-400q0 -250 250 -250h400zM650 -1v1q-500 0 -500 500v500q0 500 500 500h1750v-300h-775q25 -87 25 -200v-100h750v-300h-750v-100q0 -113 -25 -200h775v-300z" />
    <glyph glyph-name="Racute" unicode="&#x154;" 
d="M596 600h-446v300h950q250 0 250 150t-250 150h-950v300h1000q500 0 500 -450t-500 -450h-93l704 -600h-461zM806 1600l200 350h250l-200 -350h-250z" />
    <glyph glyph-name="racute" unicode="&#x155;" 
d="M1100 900q250 0 250 150t-250 150h-650v-300h650zM596 600h-146v-600h-300v1500h1000q500 0 500 -450t-500 -450h-93l704 -600h-461zM806 1600l200 350h250l-200 -350h-250z" />
    <glyph glyph-name="Rcaron" unicode="&#x158;" 
d="M596 600h-446v300h950q250 0 250 150t-250 150h-950v300h1000q500 0 500 -450t-500 -450h-93l704 -600h-461zM856 1950l100 -150l100 150h250l-250 -350h-200l-250 350h250z" />
    <glyph glyph-name="rcaron" unicode="&#x159;" 
d="M1100 900q250 0 250 150t-250 150h-650v-300h650zM596 600h-146v-600h-300v1500h1000q500 0 500 -450t-500 -450h-93l704 -600h-461zM856 1950l100 -150l100 150h250l-250 -350h-200l-250 350h250z" />
    <glyph glyph-name="Sacute" unicode="&#x15a;" 
d="M650 600q-500 0 -500 450t500 450h1000v-300h-950q-250 0 -250 -150t250 -150h450q500 0 500 -450t-500 -450h-1000v300h950q250 0 250 150t-250 150h-450zM750 1600l200 350h250l-200 -350h-250z" />
    <glyph glyph-name="sacute" unicode="&#x15b;" 
d="M650 600q-500 0 -500 450t500 450h1000v-300h-950q-250 0 -250 -150t250 -150h450q500 0 500 -450t-500 -450h-1000v300h950q250 0 250 150t-250 150h-450zM750 1600l200 350h250l-200 -350h-250z" />
    <glyph glyph-name="Scircumflex" unicode="&#x15c;" 
d="M650 600q-500 0 -500 450t500 450h1000v-300h-950q-250 0 -250 -150t250 -150h450q500 0 500 -450t-500 -450h-1000v300h950q250 0 250 150t-250 150h-450zM550 1600l250 350h200l250 -350h-250l-100 150l-100 -150h-250z" />
    <glyph glyph-name="scircumflex" unicode="&#x15d;" 
d="M650 600q-500 0 -500 450t500 450h1000v-300h-950q-250 0 -250 -150t250 -150h450q500 0 500 -450t-500 -450h-1000v300h950q250 0 250 150t-250 150h-450zM550 1600l250 350h200l250 -350h-250l-100 150l-100 -150h-250z" />
    <glyph glyph-name="Scaron" unicode="&#x160;" 
d="M650 600q-500 0 -500 450t500 450h1000v-300h-950q-250 0 -250 -150t250 -150h450q500 0 500 -450t-500 -450h-1000v300h950q250 0 250 150t-250 150h-450zM800 1950l100 -150l100 150h250l-250 -350h-200l-250 350h250z" />
    <glyph glyph-name="scaron" unicode="&#x161;" 
d="M650 600q-500 0 -500 450t500 450h1000v-300h-950q-250 0 -250 -150t250 -150h450q500 0 500 -450t-500 -450h-1000v300h950q250 0 250 150t-250 150h-450zM800 1950l100 -150l100 150h250l-250 -350h-200l-250 350h250z" />
    <glyph glyph-name="Tcaron" unicode="&#x164;" 
d="M750 1200h-599l-1 300h1500v-300h-600v-1200h-300v1200zM800 1950l100 -150l100 150h250l-250 -350h-200l-250 350h250z" />
    <glyph glyph-name="tcaron" unicode="&#x165;" 
d="M750 1200h-599l-1 300h1500v-300h-600v-1200h-300v1200zM800 1950l100 -150l100 150h250l-250 -350h-200l-250 350h250z" />
    <glyph glyph-name="Utilde" unicode="&#x168;" 
d="M1350 1500h300v-1000q0 -500 -500 -500h-500q-500 0 -500 500v1000h300v-959q0 -241 240 -241h419q241 0 241 242v958zM436 1658v232q115 -58 231 -58q93 0 231.5 58t233.5 58q116 0 233 -58v-232q-116 58 -232 58q-94 0 -232.5 -58t-232.5 -58q-116 0 -232 58z" />
    <glyph glyph-name="utilde" unicode="&#x169;" 
d="M1350 1500h300v-1000q0 -500 -500 -500h-500q-500 0 -500 500v1000h300v-959q0 -241 240 -241h419q241 0 241 242v958zM436 1658v232q115 -58 231 -58q93 0 231.5 58t233.5 58q116 0 233 -58v-232q-116 58 -232 58q-94 0 -232.5 -58t-232.5 -58q-116 0 -232 58z" />
    <glyph glyph-name="Umacron" unicode="&#x16a;" 
d="M1350 1500h300v-1000q0 -500 -500 -500h-500q-500 0 -500 500v1000h300v-959q0 -241 240 -241h419q241 0 241 242v958zM450 1600v250h900v-250h-900z" />
    <glyph glyph-name="umacron" unicode="&#x16b;" 
d="M1350 1500h300v-1000q0 -500 -500 -500h-500q-500 0 -500 500v1000h300v-959q0 -241 240 -241h419q241 0 241 242v958zM450 1600v250h900v-250h-900z" />
    <glyph glyph-name="Ubreve" unicode="&#x16c;" 
d="M1350 1500h300v-1000q0 -500 -500 -500h-500q-500 0 -500 500v1000h300v-959q0 -241 240 -241h419q241 0 241 242v958zM750 1950q0 -150 150 -150t150 150h200q0 -350 -350 -350t-350 349z" />
    <glyph glyph-name="ubreve" unicode="&#x16d;" 
d="M1350 1500h300v-1000q0 -500 -500 -500h-500q-500 0 -500 500v1000h300v-959q0 -241 240 -241h419q241 0 241 242v958zM750 1950q0 -150 150 -150t150 150h200q0 -350 -350 -350t-350 349z" />
    <glyph glyph-name="Uring" unicode="&#x16e;" 
d="M1350 1500h300v-1000q0 -500 -500 -500h-500q-500 0 -500 500v1000h300v-959q0 -241 240 -241h419q241 0 241 242v958zM908 1651q68 0 68 67v15q0 68 -68 68h-23q-59 0 -59 -68v-15q0 -67 67 -67h15zM927 1501l-53 -1v1q-198 0 -198 198v53q0 198 198 198h53
q198 0 198 -198v-53q0 -194 -198 -198z" />
    <glyph glyph-name="uring" unicode="&#x16f;" 
d="M1350 1500h300v-1000q0 -500 -500 -500h-500q-500 0 -500 500v1000h300v-959q0 -241 240 -241h419q241 0 241 242v958zM908 1651q68 0 68 67v15q0 68 -68 68h-23q-59 0 -59 -68v-15q0 -67 67 -67h15zM927 1501l-53 -1v1q-198 0 -198 198v53q0 198 198 198h53
q198 0 198 -198v-53q0 -194 -198 -198z" />
    <glyph glyph-name="Uhungarumlaut" unicode="&#x170;" 
d="M1350 1500h300v-1000q0 -500 -500 -500h-500q-500 0 -500 500v1000h300v-959q0 -241 240 -241h419q241 0 241 242v958zM475 1600l200 350h250l-200 -350h-250zM875 1600l200 350h250l-200 -350h-250z" />
    <glyph glyph-name="uhungarumlaut" unicode="&#x171;" 
d="M1350 1500h300v-1000q0 -500 -500 -500h-500q-500 0 -500 500v1000h300v-959q0 -241 240 -241h419q241 0 241 242v958zM475 1600l200 350h250l-200 -350h-250zM875 1600l200 350h250l-200 -350h-250z" />
    <glyph glyph-name="Wcircumflex" unicode="&#x174;" horiz-adv-x="2100" 
d="M445 0l-449 1500h313l293 -977l292 977h313l293 -977l292 977h313l-449 -1500h-313l-292 977l-293 -977h-313zM700 1600l250 350h200l250 -350h-250l-100 150l-100 -150h-250z" />
    <glyph glyph-name="wcircumflex" unicode="&#x175;" horiz-adv-x="2100" 
d="M445 0l-449 1500h313l293 -977l292 977h313l293 -977l292 977h313l-449 -1500h-313l-292 977l-293 -977h-313zM700 1600l250 350h200l250 -350h-250l-100 150l-100 -150h-250z" />
    <glyph glyph-name="Ycircumflex" unicode="&#x176;" horiz-adv-x="1700" 
d="M1000 695v-695h-300v695l-673 805h392l431 -515l431 515h392zM500 1600l250 350h200l250 -350h-250l-100 150l-100 -150h-250z" />
    <glyph glyph-name="ycircumflex" unicode="&#x177;" horiz-adv-x="1700" 
d="M1000 695v-695h-300v695l-673 805h392l431 -515l431 515h392zM500 1600l250 350h200l250 -350h-250l-100 150l-100 -150h-250z" />
    <glyph glyph-name="Ydieresis" unicode="&#x178;" horiz-adv-x="1700" 
d="M1000 695v-695h-300v695l-673 805h392l431 -515l431 515h392zM525 1600v250h250v-250h-250zM925 1600v250h250v-250h-250z" />
    <glyph glyph-name="Zacute" unicode="&#x179;" 
d="M1191 1200h-1041v300h1500v-300l-1041 -900h1041v-300h-1500v300zM750 1600l200 350h250l-200 -350h-250z" />
    <glyph glyph-name="zacute" unicode="&#x17a;" 
d="M1191 1200h-1041v300h1500v-300l-1041 -900h1041v-300h-1500v300zM750 1600l200 350h250l-200 -350h-250z" />
    <glyph glyph-name="Zdotaccent" unicode="&#x17b;" 
d="M1191 1200h-1041v300h1500v-300l-1041 -900h1041v-300h-1500v300zM775 1600v250h250v-250h-250z" />
    <glyph glyph-name="zdotaccent" unicode="&#x17c;" 
d="M1191 1200h-1041v300h1500v-300l-1041 -900h1041v-300h-1500v300zM775 1600v250h250v-250h-250z" />
    <glyph glyph-name="Zcaron" unicode="&#x17d;" 
d="M1191 1200h-1041v300h1500v-300l-1041 -900h1041v-300h-1500v300zM800 1950l100 -150l100 150h250l-250 -350h-200l-250 350h250z" />
    <glyph glyph-name="zcaron" unicode="&#x17e;" 
d="M1191 1200h-1041v300h1500v-300l-1041 -900h1041v-300h-1500v300zM800 1950l100 -150l100 150h250l-250 -350h-200l-250 350h250z" />
    <glyph glyph-name="longs" unicode="&#x17f;" horiz-adv-x="900" 
d="M450 0h-300v1000q0 500 500 500h100v-300h-59q-241 0 -241 -242v-958z" />
    <glyph glyph-name="uni01CD" unicode="&#x1cd;" horiz-adv-x="1700" 
d="M1339 0l-488 1123l-487 -1123h-327l651 1500h326l651 -1500h-326zM751 1950l100 -150l100 150h250l-250 -350h-200l-250 350h250z" />
    <glyph glyph-name="uni01CE" unicode="&#x1ce;" horiz-adv-x="1700" 
d="M494 300l-130 -300h-327l651 1500h326l651 -1500h-326l-130 300h-715zM1078 600l-227 523l-227 -523h454zM751 1950l100 -150l100 150h250l-250 -350h-200l-250 350h250z" />
    <glyph glyph-name="uni01CF" unicode="&#x1cf;" horiz-adv-x="600" 
d="M450 0h-300v1500h300v-1500zM200 1950l100 -150l100 150h250l-250 -350h-200l-250 350h250z" />
    <glyph glyph-name="uni01D0" unicode="&#x1d0;" horiz-adv-x="600" 
d="M450 0h-300v1500h300v-1500zM200 1950l100 -150l100 150h250l-250 -350h-200l-250 350h250z" />
    <glyph glyph-name="uni01D1" unicode="&#x1d1;" 
d="M1100 300q250 0 250 250v400q0 250 -250 250h-450q-200 0 -200 -250v-400q0 -250 250 -250h400zM1150 0l-500 -1v1q-500 0 -500 500v500q0 500 500 500h500q500 0 500 -500v-500q0 -499 -500 -500zM800 1950l100 -150l100 150h250l-250 -350h-200l-250 350h250z" />
    <glyph glyph-name="uni01D2" unicode="&#x1d2;" 
d="M1100 300q250 0 250 250v400q0 250 -250 250h-450q-200 0 -200 -250v-400q0 -250 250 -250h400zM1150 0l-500 -1v1q-500 0 -500 500v500q0 500 500 500h500q500 0 500 -500v-500q0 -499 -500 -500zM800 1950l100 -150l100 150h250l-250 -350h-200l-250 350h250z" />
    <glyph glyph-name="uni01D3" unicode="&#x1d3;" 
d="M1350 1500h300v-1000q0 -500 -500 -500h-500q-500 0 -500 500v1000h300v-959q0 -241 240 -241h419q241 0 241 242v958zM800 1950l100 -150l100 150h250l-250 -350h-200l-250 350h250z" />
    <glyph glyph-name="uni01D4" unicode="&#x1d4;" 
d="M1350 1500h300v-1000q0 -500 -500 -500h-500q-500 0 -500 500v1000h300v-959q0 -241 240 -241h419q241 0 241 242v958zM800 1950l100 -150l100 150h250l-250 -350h-200l-250 350h250z" />
    <glyph glyph-name="Gcaron" unicode="&#x1e6;" 
d="M1650 800v-800h-1000q-500 0 -500 500v500q0 500 500 500h1000v-300h-959q-241 0 -241 -240v-419q0 -241 242 -241h658v500h300zM800 1950l100 -150l100 150h250l-250 -350h-200l-250 350h250z" />
    <glyph glyph-name="gcaron" unicode="&#x1e7;" 
d="M1650 800v-800h-1000q-500 0 -500 500v500q0 500 500 500h1000v-300h-959q-241 0 -241 -240v-419q0 -241 242 -241h658v500h300zM800 1950l100 -150l100 150h250l-250 -350h-200l-250 350h250z" />
    <glyph glyph-name="uni01E8" unicode="&#x1e8;" 
d="M369 750l833 750h448l-833 -750l833 -750h-448zM800 1950l100 -150l100 150h250l-250 -350h-200l-250 350h250z" />
    <glyph glyph-name="uni01E9" unicode="&#x1e9;" 
d="M450 677v-677h-300v1500h300v-677l752 677h448l-832 -750l832 -750h-448zM800 1950l100 -150l100 150h250l-250 -350h-200l-250 350h250z" />
    <glyph glyph-name="uni01F0" unicode="&#x1f0;" 
d="M1351 1500h300v-1000q0 -500 -500 -500h-500q-511 0 -501 500l1 50h300v-9q0 -241 240 -241h419q241 0 241 242v958zM750 1950l100 -150l100 150h250l-250 -350h-200l-250 350h250z" />
    <glyph glyph-name="uni01F4" unicode="&#x1f4;" 
d="M1650 800v-800h-1000q-500 0 -500 500v500q0 500 500 500h1000v-300h-959q-241 0 -241 -240v-419q0 -241 242 -241h658v500h300zM750 1600l200 350h250l-200 -350h-250z" />
    <glyph glyph-name="uni01F5" unicode="&#x1f5;" 
d="M1650 800v-800h-1000q-500 0 -500 500v500q0 500 500 500h1000v-300h-959q-241 0 -241 -240v-419q0 -241 242 -241h658v500h300zM750 1600l200 350h250l-200 -350h-250z" />
    <glyph glyph-name="uni01F8" unicode="&#x1f8;" 
d="M450 1045v-1045h-300v1500h306l894 -1045v1045h300v-1500h-305zM800 1600l-200 350h250l200 -350h-250z" />
    <glyph glyph-name="uni01F9" unicode="&#x1f9;" 
d="M450 1045v-1045h-300v1500h306l894 -1045v1045h300v-1500h-305zM800 1600l-200 350h250l200 -350h-250z" />
    <glyph glyph-name="AEacute" unicode="&#x1fc;" horiz-adv-x="2550" 
d="M1274 900h1126v-300h-995l130 -300h865v-300h-1061l-488 1123l-487 -1123h-327l651 1500h1712v-300h-1256zM1069 1600l200 350h250l-200 -350h-250z" />
    <glyph glyph-name="aeacute" unicode="&#x1fd;" horiz-adv-x="2550" 
d="M2400 1500v-300h-1256l130 -300h1126v-300h-995l130 -300h865v-300h-1061l-130 300h-715l-130 -300h-327l651 1500h1712zM1078 600l-227 523l-227 -523h454zM1069 1600l200 350h250l-200 -350h-250z" />
    <glyph glyph-name="Oslashacute" unicode="&#x1fe;" 
d="M1100 300q250 0 250 250v400q0 250 -250 250h-450q-200 0 -200 -250v-400q0 -250 250 -250h400zM1150 0l-500 -1v1q-500 0 -500 500v500q0 500 500 500h500q500 0 500 -500v-500q0 -499 -500 -500zM925 0h-350l300 1500h350zM750 1600l200 350h250l-200 -350h-250z" />
    <glyph glyph-name="oslashacute" unicode="&#x1ff;" 
d="M1100 300q250 0 250 250v400q0 250 -250 250h-450q-200 0 -200 -250v-400q0 -250 250 -250h400zM1150 0l-500 -1v1q-500 0 -500 500v500q0 500 500 500h500q500 0 500 -500v-500q0 -499 -500 -500zM925 0h-350l300 1500h350zM750 1600l200 350h250l-200 -350h-250z" />
    <glyph glyph-name="uni0237" unicode="&#x237;" 
d="M1351 1500h300v-1000q0 -500 -500 -500h-500q-511 0 -501 500l1 50h300v-9q0 -241 240 -241h419q241 0 241 242v958z" />
    <glyph glyph-name="circumflex" unicode="&#x2c6;" horiz-adv-x="900" 
d="M100 1600l250 350h200l250 -350h-250l-100 150l-100 -150h-250z" />
    <glyph glyph-name="caron" unicode="&#x2c7;" horiz-adv-x="800" 
d="M300 1950l100 -150l100 150h250l-250 -350h-200l-250 350h250z" />
    <glyph glyph-name="uni02C9" unicode="&#x2c9;" horiz-adv-x="1200" 
d="M150 1600v250h900v-250h-900z" />
    <glyph glyph-name="breve" unicode="&#x2d8;" horiz-adv-x="800" 
d="M250 1950q0 -150 150 -150t150 150h200q0 -350 -350 -350t-350 349z" />
    <glyph glyph-name="dotaccent" unicode="&#x2d9;" horiz-adv-x="550" 
d="M150 1600v250h250v-250h-250z" />
    <glyph glyph-name="ring" unicode="&#x2da;" horiz-adv-x="750" 
d="M382 1651q68 0 68 67v15q0 68 -68 68h-23q-59 0 -59 -68v-15q0 -67 67 -67h15zM401 1501l-53 -1v1q-198 0 -198 198v53q0 198 198 198h53q198 0 198 -198v-53q0 -194 -198 -198z" />
    <glyph glyph-name="tilde" unicode="&#x2dc;" horiz-adv-x="1200" 
d="M150 1658v232q115 -58 231 -58q93 0 231.5 58t233.5 58q116 0 233 -58v-232q-116 58 -232 58q-94 0 -232.5 -58t-232.5 -58q-116 0 -232 58z" />
    <glyph glyph-name="hungarumlaut" unicode="&#x2dd;" horiz-adv-x="950" 
d="M50 1600l200 350h250l-200 -350h-250zM450 1600l200 350h250l-200 -350h-250z" />
    <glyph glyph-name="endash" unicode="&#x2013;" 
d="M150 600v300h1500v-300h-1500z" />
    <glyph glyph-name="emdash" unicode="&#x2014;" horiz-adv-x="2100" 
d="M150 600v300l1800 -1v-299h-1800z" />
    <glyph glyph-name="quoteleft" unicode="&#x2018;" horiz-adv-x="600" 
d="M450 900q-300 0 -300 300v300h300v-600z" />
    <glyph glyph-name="quoteright" unicode="&#x2019;" horiz-adv-x="600" 
d="M150 900v600h300v-300q0 -300 -300 -300z" />
    <glyph glyph-name="quotesinglbase" unicode="&#x201a;" horiz-adv-x="600" 
d="M150 -300v600h300v-300q0 -300 -300 -300z" />
    <glyph glyph-name="quotedblleft" unicode="&#x201c;" horiz-adv-x="1050" 
d="M900 900q-300 0 -300 300v300h300v-600zM450 899q-300 0 -300 300v300l300 1v-601z" />
    <glyph glyph-name="quotedblright" unicode="&#x201d;" horiz-adv-x="1050" 
d="M150 900v600h300v-300q0 -300 -300 -300zM600 899v601l300 -1v-300q0 -300 -300 -300z" />
    <glyph glyph-name="quotedblbase" unicode="&#x201e;" horiz-adv-x="1050" 
d="M150 -299v600h300v-300q0 -300 -300 -300zM600 -300v601l300 -1v-300q0 -300 -300 -300z" />
    <glyph glyph-name="ellipsis" unicode="&#x2026;" 
d="M150 0v300h300l-1 -300h-299zM750 0v300h300l-1 -300h-299zM1350 0v300h300l-1 -300h-299z" />
    <glyph glyph-name="Euro" unicode="&#x20ac;" horiz-adv-x="1950" 
d="M301 1050q25 450 499 450h1000v-300h-959q-191 0 -230 -150h1038v-250h-1049v-100h1049v-250h-1038q40 -150 231 -150h958v-300h-1000q-474 0 -499 450h-252v250h251v100h-251v250h252z" />
    <glyph glyph-name="minus" unicode="&#x2212;" horiz-adv-x="1500" 
d="M150 600v300h1200v-300h-1200z" />
    </font>
</defs>
</svg>
